<svg width="24" height="24" viewBox="0 0 24 24" fill="none" xmlns="http://www.w3.org/2000/svg">
<g clip-path="url(#clip0_1336_1177)">
<path d="M12.0055 6.60928C8.59832 6.60928 5.85011 9.01396 5.85011 11.9952C5.85011 14.9765 8.59832 17.3812 12.0055 17.3812C15.4126 17.3812 18.1608 14.9765 18.1608 11.9952C18.1608 9.01396 15.4126 6.60928 12.0055 6.60928ZM12.0055 15.4968C9.80368 15.4968 8.00368 13.9265 8.00368 11.9952C8.00368 10.064 9.79832 8.49365 12.0055 8.49365C14.2126 8.49365 16.0072 10.064 16.0072 11.9952C16.0072 13.9265 14.2072 15.4968 12.0055 15.4968ZM19.8483 6.38896C19.8483 7.0874 19.2055 7.64522 18.4126 7.64522C17.6144 7.64522 16.9769 7.08271 16.9769 6.38896C16.9769 5.69521 17.6197 5.13271 18.4126 5.13271C19.2055 5.13271 19.8483 5.69521 19.8483 6.38896ZM23.9251 7.66397C23.834 5.98115 23.3947 4.49053 21.9858 3.2624C20.5822 2.03428 18.8787 1.6499 16.9555 1.56553C14.9733 1.46709 9.03225 1.46709 7.05011 1.56553C5.13225 1.64521 3.42868 2.02959 2.01975 3.25771C0.610826 4.48584 0.176897 5.97646 0.0804687 7.65928C-0.0320312 9.39365 -0.0320312 14.5921 0.0804687 16.3265C0.17154 18.0093 0.610826 19.4999 2.01975 20.728C3.42868 21.9562 5.12689 22.3405 7.05011 22.4249C9.03225 22.5233 14.9733 22.5233 16.9555 22.4249C18.8787 22.3452 20.5822 21.9608 21.9858 20.728C23.3894 19.4999 23.8287 18.0093 23.9251 16.3265C24.0376 14.5921 24.0376 9.39834 23.9251 7.66397ZM21.3644 18.1874C20.9465 19.1062 20.1376 19.814 19.0822 20.1843C17.5019 20.7327 13.7519 20.6062 12.0055 20.6062C10.259 20.6062 6.50368 20.728 4.92868 20.1843C3.87868 19.8187 3.06975 19.1108 2.64654 18.1874C2.01975 16.8046 2.1644 13.5233 2.1644 11.9952C2.1644 10.4671 2.02511 7.18115 2.64654 5.80303C3.0644 4.88428 3.87332 4.17646 4.92868 3.80615C6.50904 3.25771 10.259 3.38428 12.0055 3.38428C13.7519 3.38428 17.5072 3.2624 19.0822 3.80615C20.1322 4.17178 20.9412 4.87959 21.3644 5.80303C21.9912 7.18584 21.8465 10.4671 21.8465 11.9952C21.8465 13.5233 21.9912 16.8093 21.3644 18.1874Z" fill="white"/>
</g>
<defs>
<clipPath id="clip0_1336_1177">
<rect width="24" height="24" fill="white"/>
</clipPath>
</defs>
</svg>
