<svg width="24" height="24" viewBox="0 0 24 24" fill="none" xmlns="http://www.w3.org/2000/svg">
<path d="M22.9022 5.81639C22.6405 4.7078 21.8694 3.8347 20.8903 3.53841C19.1157 3 11.9999 3 11.9999 3C11.9999 3 4.88403 3 3.10941 3.53841C2.13036 3.83475 1.35928 4.7078 1.09757 5.81639C0.62207 7.82578 0.62207 12.0182 0.62207 12.0182C0.62207 12.0182 0.62207 16.2106 1.09757 18.22C1.35928 19.3286 2.13036 20.1653 3.10941 20.4616C4.88403 21 11.9999 21 11.9999 21C11.9999 21 19.1157 21 20.8903 20.4616C21.8694 20.1653 22.6405 19.3286 22.9022 18.22C23.3777 16.2106 23.3777 12.0182 23.3777 12.0182C23.3777 12.0182 23.3777 7.82578 22.9022 5.81639ZM9.67258 15.8246V8.2118L15.62 12.0183L9.67258 15.8246Z" fill="white"/>
</svg>
