<svg width="120" height="24" viewBox="0 0 120 24" fill="none" xmlns="http://www.w3.org/2000/svg">
<g clip-path="url(#clip0_1336_5164)">
<path d="M12 17.27L18.18 21L16.54 13.97L22 9.24L14.81 8.63L12 2L9.19 8.63L2 9.24L7.46 13.97L5.82 21L12 17.27Z" fill="white"/>
</g>
<g clip-path="url(#clip1_1336_5164)">
<path d="M36 17.27L42.18 21L40.54 13.97L46 9.24L38.81 8.63L36 2L33.19 8.63L26 9.24L31.46 13.97L29.82 21L36 17.27Z" fill="white"/>
</g>
<g clip-path="url(#clip2_1336_5164)">
<path d="M60 17.27L66.18 21L64.54 13.97L70 9.24L62.81 8.63L60 2L57.19 8.63L50 9.24L55.46 13.97L53.82 21L60 17.27Z" fill="white"/>
</g>
<g clip-path="url(#clip3_1336_5164)">
<path d="M84 17.27L90.18 21L88.54 13.97L94 9.24L86.81 8.63L84 2L81.19 8.63L74 9.24L79.46 13.97L77.82 21L84 17.27Z" fill="white"/>
</g>
<g clip-path="url(#clip4_1336_5164)">
<path d="M118 9.24L110.81 8.62L108 2L105.19 8.63L98 9.24L103.46 13.97L101.82 21L108 17.27L114.18 21L112.55 13.97L118 9.24ZM108 15.4L104.24 17.67L105.24 13.39L101.92 10.51L106.3 10.13L108 6.1L109.71 10.14L114.09 10.52L110.77 13.4L111.77 17.68L108 15.4Z" fill="white"/>
</g>
<defs>
<clipPath id="clip0_1336_5164">
<rect width="24" height="24" fill="white"/>
</clipPath>
<clipPath id="clip1_1336_5164">
<rect width="24" height="24" fill="white" transform="translate(24)"/>
</clipPath>
<clipPath id="clip2_1336_5164">
<rect width="24" height="24" fill="white" transform="translate(48)"/>
</clipPath>
<clipPath id="clip3_1336_5164">
<rect width="24" height="24" fill="white" transform="translate(72)"/>
</clipPath>
<clipPath id="clip4_1336_5164">
<rect width="24" height="24" fill="white" transform="translate(96)"/>
</clipPath>
</defs>
</svg>
