<svg width="20" height="20" viewBox="0 0 20 20" fill="none" xmlns="http://www.w3.org/2000/svg">
<path d="M18.1948 2.4812H15.2418C15.1827 2.4812 15.1259 2.5047 15.0841 2.54652C15.0423 2.58834 15.0188 2.64506 15.0188 2.7042C15.0188 2.7422 15.0308 2.7762 15.0473 2.8072V4.5062C15.0474 4.56847 15.0351 4.63013 15.0113 4.68767C14.9876 4.74521 14.9526 4.79749 14.9086 4.84152C14.8646 4.88555 14.8123 4.92046 14.7548 4.94425C14.6972 4.96805 14.6356 4.98027 14.5733 4.9802H13.6543C13.5965 4.9802 13.5393 4.96882 13.4859 4.94671C13.4325 4.9246 13.384 4.89219 13.3432 4.85133C13.3023 4.81047 13.2699 4.76197 13.2478 4.70858C13.2257 4.6552 13.2143 4.59798 13.2143 4.5402V2.8347C13.2438 2.7975 13.2603 2.75167 13.2613 2.7042C13.2614 2.6749 13.2556 2.64587 13.2445 2.61879C13.2333 2.5917 13.2168 2.56709 13.1961 2.54637C13.1754 2.52565 13.1508 2.50923 13.1237 2.49804C13.0966 2.48686 13.0676 2.48114 13.0383 2.4812H7.0858C7.02665 2.4812 6.96993 2.5047 6.92811 2.54652C6.88629 2.58834 6.8628 2.64506 6.8628 2.7042C6.8628 2.7387 6.8723 2.7702 6.8863 2.7997V4.5182C6.8863 4.57894 6.87433 4.63908 6.85109 4.69519C6.82785 4.75131 6.79378 4.80229 6.75083 4.84524C6.70789 4.88819 6.6569 4.92225 6.60079 4.9455C6.54467 4.96874 6.48453 4.9807 6.4238 4.9807H5.6078C5.48394 4.9807 5.36516 4.9315 5.27758 4.84392C5.19 4.75634 5.1408 4.63756 5.1408 4.5137V2.8122C5.16065 2.77962 5.17152 2.74235 5.1723 2.7042C5.17236 2.6749 5.16664 2.64587 5.15546 2.61879C5.14427 2.5917 5.12785 2.56709 5.10713 2.54637C5.08641 2.52565 5.0618 2.50923 5.03471 2.49804C5.00763 2.48686 4.9786 2.48114 4.9493 2.4812H1.8378C1.70638 2.48133 1.58037 2.53356 1.48739 2.62645C1.39442 2.71933 1.34206 2.84528 1.3418 2.9767V17.7437C1.3418 18.0177 1.5643 18.2402 1.8378 18.2402H18.1948C18.3263 18.2399 18.4523 18.1875 18.5452 18.0944C18.6381 18.0013 18.6903 17.8752 18.6903 17.7437V2.9767C18.69 2.84537 18.6377 2.71949 18.5449 2.62662C18.452 2.53376 18.3261 2.48147 18.1948 2.4812ZM18.1948 17.7942H1.8378C1.83119 17.7942 1.82465 17.7929 1.81855 17.7903C1.81245 17.7878 1.80691 17.7841 1.80226 17.7794C1.79761 17.7747 1.79394 17.7691 1.79146 17.763C1.78898 17.7569 1.78773 17.7503 1.7878 17.7437V6.6072H18.2443V17.7432C18.2444 17.7498 18.2433 17.7564 18.2408 17.7625C18.2384 17.7687 18.2348 17.7743 18.2302 17.779C18.2256 17.7838 18.2201 17.7876 18.214 17.7902C18.2079 17.7928 18.2014 17.7941 18.1948 17.7942Z" fill="#007CC7"/>
<path d="M6.07359 4.4721C6.19659 4.4721 6.29659 4.3721 6.29659 4.2491V1.2501C6.29659 1.22081 6.29082 1.19182 6.27961 1.16476C6.2684 1.13771 6.25198 1.11312 6.23127 1.09241C6.21056 1.07171 6.18598 1.05528 6.15892 1.04407C6.13187 1.03287 6.10287 1.0271 6.07359 1.0271C6.0443 1.0271 6.0153 1.03287 5.98825 1.04407C5.96119 1.05528 5.93661 1.07171 5.9159 1.09241C5.89519 1.11312 5.87877 1.13771 5.86756 1.16476C5.85635 1.19182 5.85059 1.22081 5.85059 1.2501V4.2496C5.85059 4.3726 5.95059 4.4721 6.07359 4.4721Z" fill="#007CC7"/>
<path d="M14.1507 4.4721C14.2737 4.4721 14.3737 4.3721 14.3737 4.2491V1.2501C14.3737 1.19096 14.3502 1.13424 14.3084 1.09241C14.2666 1.05059 14.2099 1.0271 14.1507 1.0271C14.0916 1.0271 14.0349 1.05059 13.993 1.09241C13.9512 1.13424 13.9277 1.19096 13.9277 1.2501V4.2496C13.9277 4.3726 14.0272 4.4721 14.1507 4.4721Z" fill="#007CC7"/>
<path d="M4.92138 9.98071C5.60014 9.98071 6.15038 9.43046 6.15038 8.75171C6.15038 8.07295 5.60014 7.52271 4.92138 7.52271C4.24262 7.52271 3.69238 8.07295 3.69238 8.75171C3.69238 9.43046 4.24262 9.98071 4.92138 9.98071Z" fill="#007CC7"/>
<path d="M8.45361 9.98071C9.13237 9.98071 9.68261 9.43046 9.68261 8.75171C9.68261 8.07295 9.13237 7.52271 8.45361 7.52271C7.77485 7.52271 7.22461 8.07295 7.22461 8.75171C7.22461 9.43046 7.77485 9.98071 8.45361 9.98071Z" fill="#007CC7"/>
<path d="M11.9849 9.98071C12.6636 9.98071 13.2139 9.43046 13.2139 8.75171C13.2139 8.07295 12.6636 7.52271 11.9849 7.52271C11.3061 7.52271 10.7559 8.07295 10.7559 8.75171C10.7559 9.43046 11.3061 9.98071 11.9849 9.98071Z" fill="#007CC7"/>
<path d="M4.92138 13.4031C5.60014 13.4031 6.15038 12.8528 6.15038 12.1741C6.15038 11.4953 5.60014 10.9451 4.92138 10.9451C4.24262 10.9451 3.69238 11.4953 3.69238 12.1741C3.69238 12.8528 4.24262 13.4031 4.92138 13.4031Z" fill="#007CC7"/>
<path d="M8.45361 13.4031C9.13237 13.4031 9.68261 12.8528 9.68261 12.1741C9.68261 11.4953 9.13237 10.9451 8.45361 10.9451C7.77485 10.9451 7.22461 11.4953 7.22461 12.1741C7.22461 12.8528 7.77485 13.4031 8.45361 13.4031Z" fill="#007CC7"/>
<path d="M11.9849 13.4031C12.6636 13.4031 13.2139 12.8528 13.2139 12.1741C13.2139 11.4953 12.6636 10.9451 11.9849 10.9451C11.3061 10.9451 10.7559 11.4953 10.7559 12.1741C10.7559 12.8528 11.3061 13.4031 11.9849 13.4031Z" fill="#007CC7"/>
<path d="M4.92138 16.8257C5.60014 16.8257 6.15038 16.2754 6.15038 15.5967C6.15038 14.9179 5.60014 14.3677 4.92138 14.3677C4.24262 14.3677 3.69238 14.9179 3.69238 15.5967C3.69238 16.2754 4.24262 16.8257 4.92138 16.8257Z" fill="#007CC7"/>
<path d="M8.45361 16.8257C9.13237 16.8257 9.68261 16.2754 9.68261 15.5967C9.68261 14.9179 9.13237 14.3677 8.45361 14.3677C7.77485 14.3677 7.22461 14.9179 7.22461 15.5967C7.22461 16.2754 7.77485 16.8257 8.45361 16.8257Z" fill="#007CC7"/>
<path d="M11.9849 16.8257C12.6636 16.8257 13.2139 16.2754 13.2139 15.5967C13.2139 14.9179 12.6636 14.3677 11.9849 14.3677C11.3061 14.3677 10.7559 14.9179 10.7559 15.5967C10.7559 16.2754 11.3061 16.8257 11.9849 16.8257Z" fill="#007CC7"/>
<path d="M15.4341 9.98071C16.1128 9.98071 16.6631 9.43046 16.6631 8.75171C16.6631 8.07295 16.1128 7.52271 15.4341 7.52271C14.7553 7.52271 14.2051 8.07295 14.2051 8.75171C14.2051 9.43046 14.7553 9.98071 15.4341 9.98071Z" fill="#007CC7"/>
<path d="M15.4341 13.4031C16.1128 13.4031 16.6631 12.8528 16.6631 12.1741C16.6631 11.4953 16.1128 10.9451 15.4341 10.9451C14.7553 10.9451 14.2051 11.4953 14.2051 12.1741C14.2051 12.8528 14.7553 13.4031 15.4341 13.4031Z" fill="#007CC7"/>
<path d="M15.4341 16.8257C16.1128 16.8257 16.6631 16.2754 16.6631 15.5967C16.6631 14.9179 16.1128 14.3677 15.4341 14.3677C14.7553 14.3677 14.2051 14.9179 14.2051 15.5967C14.2051 16.2754 14.7553 16.8257 15.4341 16.8257Z" fill="#007CC7"/>
</svg>
